# xmcd
#
# Track frame offsets:
#	150
#	5640
#	17156
#	28956
#	49201
#	59407
#	83526
#	100295
#	116372
#	127934
#
# Disc length: 2041 seconds
#
# Revision: 1
# Processed by: cddbd v1.5.1PL0 Copyright (c) Steve Scherf et al.
# Submitted via: EasyCDDAExtractor 5.1.0
#
DISCID=7b07f70a
DTITLE=Deviant - Larvaeon
DYEAR=2005
DGENRE=Death Metal
TTITLE0=Memento mori
TTITLE1=Fleshwork
TTITLE2=Immaculate rancidity
TTITLE3=The bullets beckon
TTITLE4=Crucifiend
TTITLE5=Widowmaker
TTITLE6=Tools of termination
TTITLE7=Blood clotted eyes
TTITLE8=Larvaeon
TTITLE9=Deviance
EXTD=
EXTT0=
EXTT1=
EXTT2=
EXTT3=
EXTT4=
EXTT5=
EXTT6=
EXTT7=
EXTT8=
EXTT9=
PLAYORDER=
